<?xml version="1.0" standalone="no"?>
<svg xmlns="http://www.w3.org/2000/svg" width="224.20026711185307" height="75.16026711185309" viewBox="0 0 224.20026711185307 75.16026711185309"><g fill="#0066ff" color="#0066ff" transform="translate(0 6.264) scale(1.5658389)"><svg width="48.0" height="40.0" x="0.0" y="0.0" viewBox="0 0 48 40"><path fill="currentColor" fill-rule="evenodd" d="M41.576 0L12.872 28.703v-2.95L38.625 0h-4.1l-10.9 10.898L12.725 0h-4.1l12.949 12.95-1.476 1.474L5.675 0h-4.1l16.474 16.475-1.475 1.475L0 1.376V40h2.9V8.378l2.087 2.086V40h2.9V13.364l2.086 2.087V40h2.9v-.146l10.752-10.752L34.525 40h2.951V15.253l2.086-2.087V40h2.9V10.266l2.087-2.086V40h2.898V5.434h-.153l.153-.154V1.178L12.872 35.754v-2.95L45.675 0h-4.1zm-8.849 20l1.848-1.848v3.697L32.727 20zm-19.855-1.65L14.522 20l-1.65 1.65V18.35zm16.329 5.176l1.476-1.474 3.898 3.899v2.952l-5.374-5.377zm-3.526 3.526l1.475-1.476 7.425 7.426v2.95l-8.9-8.9z"></path></svg></g><path fill="#000000" fill-rule="nonzero" d="M3.60 27.20L3.60 5.60Q3.60 3.56 3.04 2.58Q2.48 1.60 0.80 1.60L0.80 1.60L0 1.60L0 0.80L15.96 0.80Q19.36 0.80 19.36 4L19.36 4L19.36 7L18.56 7Q18.56 2.40 13.56 2.40L13.56 2.40L7.20 2.40L7.20 13.00L16.24 13.00L16.24 14.60L7.20 14.60L7.20 27.20L3.60 27.20ZM27.60 27.20Q26.12 27.20 25.38 26.82Q24.64 26.44 24.32 25.44Q24 24.44 24 22.40L24 22.40L24 0.80L27.60 0.80L27.60 22.40Q27.60 24.44 28.16 25.42Q28.72 26.40 30.40 26.40L30.40 26.40L31.20 26.40L31.20 27.20L27.60 27.20ZM41.84 27.20L41.84 2.40L38.24 2.40Q33.24 2.40 33.24 7L33.24 7L32.44 7L32.44 4Q32.44 0.80 35.84 0.80L35.84 0.80L54.44 0.80L54.44 2.40L45.44 2.40L45.44 27.20L41.84 27.20ZM59.16 27.20L59.16 5.60Q59.16 3.56 58.60 2.58Q58.04 1.60 56.36 1.60L56.36 1.60L55.56 1.60L55.56 0.80L65.96 0.80Q70.32 0.80 73.54 2.24Q76.76 3.68 76.76 7.80L76.76 7.80Q76.76 9.68 75.48 11.20Q74.20 12.72 71.56 13.60L71.56 13.60Q75.24 14.20 76.70 15.78Q78.16 17.36 78.16 20L78.16 20Q78.16 24.04 74.98 25.62Q71.80 27.20 67.16 27.20L67.16 27.20L59.16 27.20ZM62.76 13.00L66.56 13.00Q68.20 13.00 69.66 12.38Q71.12 11.76 72.04 10.54Q72.96 9.32 72.96 7.60L72.96 7.60Q72.96 5.80 71.88 4.58Q70.80 3.36 69.14 2.78Q67.48 2.20 65.76 2.20L65.76 2.20Q64.36 2.20 62.76 2.60L62.76 2.60L62.76 13.00ZM66.56 25.80Q70.20 25.80 72.18 24.36Q74.16 22.92 74.16 20.20L74.16 20.20Q74.16 17.48 72.22 16.04Q70.28 14.60 66.56 14.60L66.56 14.60L62.76 14.60L62.76 25.24Q64.68 25.80 66.56 25.80L66.56 25.80ZM94.04 28Q90.32 28 87.50 26.16Q84.68 24.32 83.16 21.12Q81.64 17.92 81.64 14.00L81.64 14.00Q81.64 10.08 83.16 6.88Q84.68 3.68 87.50 1.84Q90.32 0 94.04 0L94.04 0Q97.76 0 100.58 1.84Q103.40 3.68 104.92 6.88Q106.44 10.08 106.44 14.00L106.44 14.00Q106.44 17.92 104.92 21.12Q103.40 24.32 100.58 26.16Q97.76 28 94.04 28L94.04 28ZM94.04 26.40Q96.64 26.40 98.54 24.88Q100.44 23.36 101.44 20.58Q102.44 17.80 102.44 14.00L102.44 14.00Q102.44 10.20 101.44 7.42Q100.44 4.64 98.54 3.12Q96.64 1.60 94.04 1.60L94.04 1.60Q91.44 1.60 89.54 3.12Q87.64 4.64 86.64 7.42Q85.64 10.20 85.64 14.00L85.64 14.00Q85.64 17.80 86.64 20.58Q87.64 23.36 89.54 24.88Q91.44 26.40 94.04 26.40L94.04 26.40ZM108.44 27.20L118.44 14.20L112.84 6Q111.88 4.60 111.16 3.78Q110.44 2.96 109.28 2.32Q108.12 1.68 106.44 1.60L106.44 1.60L106.44 0.80L111.24 0.80Q113 0.80 114.20 1.94Q115.40 3.08 116.84 5.20L116.84 5.20L120.84 11.20L128.84 0.80L130.84 0.80L121.84 12.60L128.24 22Q129.48 23.84 130.90 25.06Q132.32 26.28 134.04 26.40L134.04 26.40L134.04 27.20L129.84 27.20Q128.12 27.20 126.80 25.98Q125.48 24.76 124.24 22.80L124.24 22.80L119.44 15.60L110.44 27.20L108.44 27.20Z" transform="translate(90.161 0) scale(1)"></path><path fill="#000000" fill-rule="nonzero" d="M9.12 27.88Q6.92 27.88 4.80 27.28Q2.68 26.68 1.34 25.56Q0 24.44 0 23L0 23L0 18.72L0.72 18.72Q1.40 22.72 3.36 24.50Q5.32 26.28 8.76 26.28L8.76 26.28Q10.92 26.28 12.46 25.20Q14 24.12 14 22.20L14 22.20Q14 20.52 12.96 19.28Q11.92 18.04 9.60 16.68L9.60 16.68L4.68 13.76Q2.12 12.24 1.06 10.68Q0 9.12 0 6.88L0 6.88Q0 3.80 2.14 1.94Q4.28 0.08 7.76 0.08L7.76 0.08Q9.80 0.08 11.80 0.66Q13.80 1.24 15.10 2.34Q16.40 3.44 16.40 4.88L16.40 4.88L16.40 9.16L15.68 9.16Q15 5.16 13.10 3.42Q11.20 1.68 7.76 1.68L7.76 1.68Q5.92 1.68 4.52 2.80Q3.12 3.92 3.12 5.72L3.12 5.72Q3.12 7.36 4.14 8.44Q5.16 9.52 7.56 10.96L7.56 10.96L12.48 13.88Q15.20 15.52 16.32 16.92Q17.44 18.32 17.44 20.48L17.44 20.48Q17.44 23.84 15.20 25.86Q12.96 27.88 9.12 27.88L9.12 27.88ZM23.40 27.20L23.40 5.60Q23.40 3.56 22.84 2.58Q22.28 1.60 20.60 1.60L20.60 1.60L19.80 1.60L19.80 0.80L23.40 0.80Q24.88 0.80 25.62 1.18Q26.36 1.56 26.68 2.56Q27 3.56 27 5.60L27 5.60L27 12.80L39 12.80L39 0.80L42.60 0.80L42.60 22.40Q42.60 24.44 43.16 25.42Q43.72 26.40 45.40 26.40L45.40 26.40L46.20 26.40L46.20 27.20L42.60 27.20Q41.12 27.20 40.38 26.82Q39.64 26.44 39.32 25.44Q39 24.44 39 22.40L39 22.40L39 14.40L27 14.40L27 27.20L23.40 27.20ZM60.84 28Q57.12 28 54.30 26.16Q51.48 24.32 49.96 21.12Q48.44 17.92 48.44 14.00L48.44 14.00Q48.44 10.08 49.96 6.88Q51.48 3.68 54.30 1.84Q57.12 0 60.84 0L60.84 0Q64.56 0 67.38 1.84Q70.20 3.68 71.72 6.88Q73.24 10.08 73.24 14.00L73.24 14.00Q73.24 17.92 71.72 21.12Q70.20 24.32 67.38 26.16Q64.56 28 60.84 28L60.84 28ZM60.84 26.40Q63.44 26.40 65.34 24.88Q67.24 23.36 68.24 20.58Q69.24 17.80 69.24 14.00L69.24 14.00Q69.24 10.20 68.24 7.42Q67.24 4.64 65.34 3.12Q63.44 1.60 60.84 1.60L60.84 1.60Q58.24 1.60 56.34 3.12Q54.44 4.64 53.44 7.42Q52.44 10.20 52.44 14.00L52.44 14.00Q52.44 17.80 53.44 20.58Q54.44 23.36 56.34 24.88Q58.24 26.40 60.84 26.40L60.84 26.40ZM79.04 27.20L79.04 5.60Q79.04 3.56 78.48 2.58Q77.92 1.60 76.24 1.60L76.24 1.60L75.44 1.60L75.44 0.80L85.84 0.80Q89.68 0.80 92.76 2.44Q95.84 4.08 95.84 8.80L95.84 8.80Q95.84 11.92 94.24 13.60Q92.64 15.28 90.66 15.84Q88.68 16.40 87.04 16.40L87.04 16.40L82.64 16.40L82.64 27.20L79.04 27.20ZM85.64 15.00Q86.92 15.00 88.36 14.34Q89.80 13.68 90.82 12.24Q91.84 10.80 91.84 8.60L91.84 8.60Q91.84 6.40 90.82 4.96Q89.80 3.52 88.36 2.86Q86.92 2.20 85.64 2.20L85.64 2.20Q84.24 2.20 82.64 2.60L82.64 2.60L82.64 14.60Q84.24 15.00 85.64 15.00L85.64 15.00Z" transform="translate(90.161 36) scale(1.399)"></path></svg>